<?xml version="1.0" encoding="UTF-8" standalone="no"?>
<!-- Created with Inkscape (http://www.inkscape.org/) -->

<svg
   width="67.348351mm"
   height="98.569183mm"
   viewBox="0 0 67.348351 98.569183"
   version="1.1"
   id="svg1"
   xmlns="http://www.w3.org/2000/svg"
   xmlns:svg="http://www.w3.org/2000/svg">
  <defs
     id="defs1" />
  <g
     id="layer1"
     transform="translate(-112.29561,-168.89788)">
    <g
       id="g2"
       transform="translate(16.988764,4.3988765)">
      <path
         d="m 128.98127,164.499 c 0,0 -33.674426,46.29754 -33.674426,64.89527 0,18.59772 15.076706,33.67391 33.674426,33.67391 18.59773,0 33.67392,-15.07618 33.67392,-33.67391 0,-18.59773 -33.67392,-64.89527 -33.67392,-64.89527 z"
         style="fill:#211f2b;fill-opacity:1;stroke-width:0.2;stroke-linecap:round;stroke-linejoin:bevel"
         id="path18" />
      <g
         id="g18"
         transform="matrix(1.0852137,0,0,1.0852137,-10.77365,-24.486147)">
        <path
           d="m 128.9694,212.62812 a 21.360632,21.360632 0 0 0 -21.36097,21.36097 21.360632,21.360632 0 0 0 21.36097,21.36045 21.360632,21.360632 0 0 0 20.98373,-17.36741 9.2549458,9.2549458 0 0 1 -3.30367,3.76566 12.791964,12.791964 0 0 1 -10.16992,5.03328 12.791964,12.791964 0 0 1 -12.79199,-12.79198 12.791964,12.791964 0 0 1 12.79199,-12.79199 12.791964,12.791964 0 0 1 10.17147,5.03432 9.2549458,9.2549458 0 0 1 3.30212,3.76463 21.360632,21.360632 0 0 0 -20.98373,-17.36793 z"
           style="fill:#19c8ea;fill-opacity:1;stroke-width:0.126867;stroke-linecap:round;stroke-linejoin:bevel"
           id="path12-6" />
        <path
           d="m 136.47954,221.1971 a 12.791964,12.791964 0 0 0 -12.79199,12.79199 12.791964,12.791964 0 0 0 12.79199,12.79198 12.791964,12.791964 0 0 0 10.16992,-5.03328 9.2549458,9.2549458 0 0 1 -5.04517,1.49603 9.2549458,9.2549458 0 0 1 -9.25525,-9.25473 9.2549458,9.2549458 0 0 1 9.25525,-9.25525 9.2549458,9.2549458 0 0 1 5.04672,1.49758 12.791964,12.791964 0 0 0 -10.17147,-5.03432 z"
           style="fill:#1b172a;fill-opacity:1;stroke:#000000;stroke-width:0.0759752;stroke-linecap:round;stroke-linejoin:bevel;stroke-opacity:1"
           id="path13-0" />
      </g>
    </g>
  </g>
</svg>
